<mxfile host="Electron" agent="Mozilla/5.0 (Windows NT 10.0; Win64; x64) AppleWebKit/537.36 (KHTML, like Gecko) draw.io/25.0.2 Chrome/128.0.6613.186 Electron/32.2.5 Safari/537.36" version="25.0.2">
  <diagram name="Page-1" id="gLo6yfBA45xpCXMqz-ns">
    <mxGraphModel dx="863" dy="505" grid="1" gridSize="10" guides="1" tooltips="1" connect="1" arrows="1" fold="1" page="1" pageScale="1" pageWidth="850" pageHeight="1100" math="0" shadow="0">
      <root>
        <mxCell id="0" />
        <mxCell id="1" parent="0" />
        <mxCell id="BozT58qzWdpXFKe4H0U9-26" value="&lt;font style=&quot;font-size: 21px;&quot;&gt;true&lt;/font&gt;" style="text;strokeColor=none;align=center;fillColor=none;html=1;verticalAlign=middle;whiteSpace=wrap;rounded=0;fontColor=#FFFFFF;" parent="1" vertex="1">
          <mxGeometry x="90" y="260" width="90" height="45" as="geometry" />
        </mxCell>
        <mxCell id="h_6kBLBXPy8EBbejA-hk-15" style="edgeStyle=orthogonalEdgeStyle;rounded=0;orthogonalLoop=1;jettySize=auto;html=1;" edge="1" parent="1" source="h_6kBLBXPy8EBbejA-hk-1">
          <mxGeometry relative="1" as="geometry">
            <mxPoint x="240" y="440" as="targetPoint" />
          </mxGeometry>
        </mxCell>
        <mxCell id="h_6kBLBXPy8EBbejA-hk-1" value="&lt;span style=&quot;color: rgb(255, 255, 255);&quot;&gt;In &quot;a nhỏ hơn b&quot;&lt;/span&gt;" style="rounded=1;whiteSpace=wrap;html=1;absoluteArcSize=1;arcSize=14;strokeWidth=2;" vertex="1" parent="1">
          <mxGeometry x="320" y="360" width="120" height="60" as="geometry" />
        </mxCell>
        <mxCell id="h_6kBLBXPy8EBbejA-hk-2" value="&lt;span style=&quot;color: rgb(255, 255, 255);&quot;&gt;In &quot;a lớn&lt;/span&gt;&lt;span style=&quot;color: rgb(255, 255, 255); background-color: initial;&quot;&gt;&amp;nbsp;hơn b&quot;&lt;/span&gt;" style="rounded=1;whiteSpace=wrap;html=1;absoluteArcSize=1;arcSize=14;strokeWidth=2;" vertex="1" parent="1">
          <mxGeometry x="40" y="360" width="120" height="60" as="geometry" />
        </mxCell>
        <mxCell id="h_6kBLBXPy8EBbejA-hk-3" value="&lt;span style=&quot;color: rgb(255, 255, 255); font-size: 20px;&quot;&gt;End&lt;/span&gt;" style="strokeWidth=2;html=1;shape=mxgraph.flowchart.start_1;whiteSpace=wrap;" vertex="1" parent="1">
          <mxGeometry x="190" y="440" width="100" height="60" as="geometry" />
        </mxCell>
        <mxCell id="h_6kBLBXPy8EBbejA-hk-11" style="edgeStyle=orthogonalEdgeStyle;rounded=0;orthogonalLoop=1;jettySize=auto;html=1;entryX=0.5;entryY=0;entryDx=0;entryDy=0;" edge="1" parent="1" source="h_6kBLBXPy8EBbejA-hk-4" target="h_6kBLBXPy8EBbejA-hk-2">
          <mxGeometry relative="1" as="geometry" />
        </mxCell>
        <mxCell id="h_6kBLBXPy8EBbejA-hk-13" style="edgeStyle=orthogonalEdgeStyle;rounded=0;orthogonalLoop=1;jettySize=auto;html=1;entryX=0.5;entryY=0;entryDx=0;entryDy=0;" edge="1" parent="1" source="h_6kBLBXPy8EBbejA-hk-4" target="h_6kBLBXPy8EBbejA-hk-1">
          <mxGeometry relative="1" as="geometry" />
        </mxCell>
        <mxCell id="h_6kBLBXPy8EBbejA-hk-4" value="&lt;span style=&quot;color: rgb(255, 255, 255);&quot;&gt;&lt;font style=&quot;font-size: 21px;&quot;&gt;a &amp;gt; b?&lt;/font&gt;&lt;/span&gt;" style="strokeWidth=2;html=1;shape=mxgraph.flowchart.decision;whiteSpace=wrap;" vertex="1" parent="1">
          <mxGeometry x="190" y="250" width="100" height="100" as="geometry" />
        </mxCell>
        <mxCell id="h_6kBLBXPy8EBbejA-hk-7" value="" style="edgeStyle=orthogonalEdgeStyle;rounded=0;orthogonalLoop=1;jettySize=auto;html=1;" edge="1" parent="1" source="h_6kBLBXPy8EBbejA-hk-5" target="h_6kBLBXPy8EBbejA-hk-6">
          <mxGeometry relative="1" as="geometry" />
        </mxCell>
        <mxCell id="h_6kBLBXPy8EBbejA-hk-5" value="&lt;span style=&quot;color: rgb(255, 255, 255); font-size: 20px;&quot;&gt;Start&lt;/span&gt;" style="strokeWidth=2;html=1;shape=mxgraph.flowchart.start_1;whiteSpace=wrap;" vertex="1" parent="1">
          <mxGeometry x="190" y="60" width="100" height="60" as="geometry" />
        </mxCell>
        <mxCell id="h_6kBLBXPy8EBbejA-hk-8" value="" style="edgeStyle=orthogonalEdgeStyle;rounded=0;orthogonalLoop=1;jettySize=auto;html=1;" edge="1" parent="1" source="h_6kBLBXPy8EBbejA-hk-6" target="h_6kBLBXPy8EBbejA-hk-4">
          <mxGeometry relative="1" as="geometry" />
        </mxCell>
        <mxCell id="h_6kBLBXPy8EBbejA-hk-6" value="&lt;span style=&quot;color: rgb(255, 255, 255);&quot;&gt;Nhập số a,b&lt;/span&gt;" style="shape=parallelogram;html=1;strokeWidth=2;perimeter=parallelogramPerimeter;whiteSpace=wrap;rounded=1;arcSize=12;size=0.23;" vertex="1" parent="1">
          <mxGeometry x="190" y="160" width="100" height="60" as="geometry" />
        </mxCell>
        <mxCell id="h_6kBLBXPy8EBbejA-hk-12" value="&lt;span style=&quot;&quot;&gt;&lt;font style=&quot;font-size: 21px;&quot;&gt;false&lt;/font&gt;&lt;/span&gt;" style="text;strokeColor=none;align=center;fillColor=none;html=1;verticalAlign=middle;whiteSpace=wrap;rounded=0;fontColor=#FFFFFF;" vertex="1" parent="1">
          <mxGeometry x="290" y="260" width="90" height="45" as="geometry" />
        </mxCell>
        <mxCell id="h_6kBLBXPy8EBbejA-hk-14" style="edgeStyle=orthogonalEdgeStyle;rounded=0;orthogonalLoop=1;jettySize=auto;html=1;entryX=0.5;entryY=0.167;entryDx=0;entryDy=0;entryPerimeter=0;" edge="1" parent="1" source="h_6kBLBXPy8EBbejA-hk-2" target="h_6kBLBXPy8EBbejA-hk-3">
          <mxGeometry relative="1" as="geometry" />
        </mxCell>
      </root>
    </mxGraphModel>
  </diagram>
</mxfile>
